name Walk2.mot
datacolumns 19
datarows 20
range 1.72200000 1.74100000
endheader

                time	   L_ground_force_vx	   L_ground_force_vy	   L_ground_force_vz	   L_ground_force_px	   L_ground_force_py	   L_ground_force_pz	   R_ground_force_vx	   R_ground_force_vy	   R_ground_force_vz	   R_ground_force_px	   R_ground_force_py	   R_ground_force_pz	   L_ground_torque_x	   L_ground_torque_y	   L_ground_torque_z	   R_ground_torque_x	   R_ground_torque_y	   R_ground_torque_z	
          1.72200000	         17.71920702	        726.64976994	         46.07922557	         -0.23567661	          0.00000000	         -0.05223832	          0.00715345	          0.04270926	          0.01489382	          0.00007051	          0.00000000	          0.00003263	          0.00000000	          2.60865179	          0.00000000	          0.00000000	         -0.00252533	          0.00000000	
          1.72300000	         18.12929082	        727.85664772	         46.15314956	         -0.23535588	          0.00000000	         -0.05227387	          0.00733971	          0.04884010	          0.01606510	          0.00007683	          0.00000000	          0.00003551	          0.00000000	          2.60525174	          0.00000000	          0.00000000	         -0.00264067	          0.00000000	
          1.72400000	         18.54143616	        729.06315655	         46.22713461	         -0.23503535	          0.00000000	         -0.05230896	          0.00751296	          0.05533894	          0.01727887	          0.00008342	          0.00000000	          0.00003850	          0.00000000	          2.60142702	          0.00000000	          0.00000000	         -0.00275581	          0.00000000	
          1.72500000	         18.95575509	        730.26920486	         46.30133736	         -0.23471509	          0.00000000	         -0.05234357	          0.00767129	          0.06221315	          0.01853407	          0.00009028	          0.00000000	          0.00004162	          0.00000000	          2.59719245	          0.00000000	          0.00000000	         -0.00287028	          0.00000000	
          1.72600000	         19.37236130	        731.47471130	         46.37591721	         -0.23439516	          0.00000000	         -0.05237768	          0.00781265	          0.06946920	          0.01982937	          0.00009740	          0.00000000	          0.00004485	          0.00000000	          2.59256502	          0.00000000	          0.00000000	         -0.00298353	          0.00000000	
          1.72700000	         19.79137003	        732.67960500	         46.45103494	         -0.23407560	          0.00000000	         -0.05241127	          0.00793488	          0.07711263	          0.02116314	          0.00010478	          0.00000000	          0.00004820	          0.00000000	          2.58756352	          0.00000000	          0.00000000	         -0.00309498	          0.00000000	
          1.72800000	         20.21289787	        733.88382582	         46.52685122	         -0.23375647	          0.00000000	         -0.05244432	          0.00803569	          0.08514785	          0.02253345	          0.00011241	          0.00000000	          0.00005166	          0.00000000	          2.58220819	          0.00000000	          0.00000000	         -0.00320401	          0.00000000	
          1.72900000	         20.63706236	        735.08732494	         46.60352551	         -0.23343783	          0.00000000	         -0.05247679	          0.00811269	          0.09357809	          0.02393804	          0.00012029	          0.00000000	          0.00005523	          0.00000000	          2.57652031	          0.00000000	          0.00000000	         -0.00330993	          0.00000000	
          1.73000000	         21.06398140	        736.29006571	         46.68121519	         -0.23311974	          0.00000000	         -0.05250867	          0.00816334	          0.10240524	          0.02537428	          0.00012841	          0.00000000	          0.00005890	          0.00000000	          2.57052188	          0.00000000	          0.00000000	         -0.00341203	          0.00000000	
          1.73100000	         21.49377267	        737.49202523	         46.76007503	         -0.23280224	          0.00000000	         -0.05253994	          0.00818498	          0.11162974	          0.02683919	          0.00013674	          0.00000000	          0.00006267	          0.00000000	          2.56423528	          0.00000000	          0.00000000	         -0.00350952	          0.00000000	
          1.73200000	         21.92655318	        738.69319615	         46.84025681	         -0.23248540	          0.00000000	         -0.05257059	          0.00817483	          0.12125039	          0.02832939	          0.00014529	          0.00000000	          0.00006653	          0.00000000	          2.55768304	          0.00000000	          0.00000000	         -0.00360158	          0.00000000	
          1.73300000	         22.36243900	        739.89358840	         46.92190895	         -0.23216928	          0.00000000	         -0.05260060	          0.00812997	          0.13126430	          0.02984107	          0.00015403	          0.00000000	          0.00007047	          0.00000000	          2.55088769	          0.00000000	          0.00000000	         -0.00368732	          0.00000000	
          1.73400000	         22.80154505	        741.09323025	         47.00517596	         -0.23185391	          0.00000000	         -0.05262998	          0.00804737	          0.14166663	          0.03136997	          0.00016295	          0.00000000	          0.00007449	          0.00000000	          2.54387167	          0.00000000	          0.00000000	         -0.00376580	          0.00000000	
          1.73500000	         23.24398494	        742.29216882	         47.09019782	         -0.23153937	          0.00000000	         -0.05265870	          0.00792386	          0.15245054	          0.03291140	          0.00017203	          0.00000000	          0.00007857	          0.00000000	          2.53665729	          0.00000000	          0.00000000	         -0.00383602	          0.00000000	
          1.73600000	         23.68987053	        743.49047043	         47.17710924	         -0.23122569	          0.00000000	         -0.05268678	          0.00775614	          0.16360693	          0.03446014	          0.00018123	          0.00000000	          0.00008271	          0.00000000	          2.52926678	          0.00000000	          0.00000000	         -0.00389692	          0.00000000	
          1.73700000	         24.13931159	        744.68822109	         47.26603881	         -0.23091293	          0.00000000	         -0.05271421	          0.00754081	          0.17512435	          0.03601048	          0.00019055	          0.00000000	          0.00008690	          0.00000000	          2.52172221	          0.00000000	          0.00000000	         -0.00394738	          0.00000000	
          1.73800000	         24.59241523	        745.88552683	         47.35710823	         -0.23060115	          0.00000000	         -0.05274101	          0.00727433	          0.18698878	          0.03755617	          0.00019994	          0.00000000	          0.00009111	          0.00000000	          2.51404529	          0.00000000	          0.00000000	         -0.00398624	          0.00000000	
          1.73900000	         25.04928572	        747.08251318	         47.45043151	         -0.23029040	          0.00000000	         -0.05276717	          0.00695304	          0.19918346	          0.03909038	          0.00020938	          0.00000000	          0.00009534	          0.00000000	          2.50625715	          0.00000000	          0.00000000	         -0.00401224	          0.00000000	
          1.74000000	         25.51002447	        748.27932365	         47.54611425	         -0.22998074	          0.00000000	         -0.05279271	          0.00657318	          0.21168872	          0.04060573	          0.00021883	          0.00000000	          0.00009957	          0.00000000	          2.49837805	          0.00000000	          0.00000000	         -0.00402409	          0.00000000	
          1.74100000	         25.97473033	        749.47611739	         47.64425303	         -0.22967224	          0.00000000	         -0.05281763	          0.00613087	          0.22448179	          0.04209418	          0.00022826	          0.00000000	          0.00010378	          0.00000000	          2.49042716	          0.00000000	          0.00000000	         -0.00402042	          0.00000000	
